<svg width="584" height="97" viewBox="0 0 584 97" fill="none" xmlns="http://www.w3.org/2000/svg">
<g opacity="0.7">
<path fill-rule="evenodd" clip-rule="evenodd" d="M364.239 0.452637C361.902 0.452637 360 2.35639 360 4.6964C360 7.03745 361.902 8.94193 364.239 8.94193C366.575 8.94193 368.475 7.03735 368.475 4.6964C368.475 2.35639 366.575 0.452637 364.239 0.452637ZM367.449 10.7348H361.025C360.74 10.7348 360.509 10.9665 360.509 11.2521V31.9353C360.509 32.2211 360.74 32.4526 361.025 32.4526H367.449C367.734 32.4526 367.965 32.2211 367.965 31.9353V11.2521C367.965 10.9665 367.734 10.7348 367.449 10.7348ZM378.145 12.5954C379.301 11.3323 381.209 10.2207 383.789 10.2207C391.024 10.2207 392 15.4626 392 20.5902V31.9354C392 32.2211 391.769 32.4526 391.484 32.4526H385.072C384.786 32.4526 384.555 32.2211 384.555 31.9354V21.8793C384.555 19.0637 384.348 16.91 381.736 16.91C379.337 16.91 378.402 18.2534 378.402 21.7018V31.9353C378.402 32.221 378.171 32.4525 377.886 32.4525H371.476C371.191 32.4525 370.96 32.221 370.96 31.9353V11.252C370.96 10.9664 371.191 10.7347 371.476 10.7347H377.628C377.914 10.7347 378.145 10.9664 378.145 11.252V12.5954Z" fill="#0F161E"/>
<path d="M424 16.4526C424 13.5513 424.715 10.874 426.144 8.42064C427.573 5.96729 429.515 4.02598 431.968 2.59664C434.421 1.16729 437.099 0.452637 440 0.452637C442.901 0.452637 445.579 1.16729 448.032 2.59664C450.485 4.02598 452.427 5.96729 453.856 8.42064C455.285 10.874 456 13.5513 456 16.4526C456 19.354 455.285 22.0313 453.856 24.4846C452.427 26.938 450.485 28.8793 448.032 30.3086C445.579 31.738 442.901 32.4526 440 32.4526C437.099 32.4526 434.421 31.738 431.968 30.3086C429.515 28.8793 427.573 26.938 426.144 24.4846C424.715 22.0313 424 19.354 424 16.4526ZM426.656 16.4526C426.656 19.7806 427.776 22.714 430.016 25.2526C431.04 23.2473 432.661 21.338 434.88 19.5246C437.099 17.7113 439.264 16.57 441.376 16.1006C441.056 15.354 440.747 14.682 440.448 14.0846C436.779 15.258 432.811 15.8446 428.544 15.8446C427.712 15.8446 427.093 15.834 426.688 15.8126C426.688 15.898 426.683 16.0046 426.672 16.1326C426.661 16.2606 426.656 16.3673 426.656 16.4526ZM427.072 13.1566C427.541 13.1993 428.235 13.2206 429.152 13.2206C432.715 13.2206 436.096 12.7406 439.296 11.7806C437.675 8.90064 435.893 6.50064 433.952 4.58064C432.267 5.43398 430.821 6.61798 429.616 8.13264C428.411 9.64729 427.563 11.322 427.072 13.1566ZM431.84 26.9806C434.251 28.858 436.971 29.7966 440 29.7966C441.579 29.7966 443.147 29.498 444.704 28.9006C444.277 25.2526 443.445 21.722 442.208 18.3086C440.245 18.7353 438.267 19.8126 436.272 21.5406C434.277 23.2686 432.8 25.082 431.84 26.9806ZM436.736 3.55664C438.613 5.49798 440.352 7.91929 441.952 10.8206C444.853 9.60464 447.04 8.05798 448.512 6.18064C446.037 4.13264 443.2 3.10864 440 3.10864C438.912 3.10864 437.824 3.25798 436.736 3.55664ZM443.104 13.0926C443.424 13.7753 443.787 14.6393 444.192 15.6846C445.771 15.5353 447.488 15.4606 449.344 15.4606C450.667 15.4606 451.979 15.4926 453.28 15.5566C453.109 12.6553 452.064 10.074 450.144 7.81264C448.757 9.88198 446.411 11.642 443.104 13.0926ZM444.992 17.9246C446.08 21.082 446.816 24.3246 447.2 27.6526C448.885 26.5646 450.261 25.1673 451.328 23.4606C452.395 21.754 453.035 19.9086 453.248 17.9246C451.691 17.818 450.272 17.7646 448.992 17.7646C447.819 17.7646 446.485 17.818 444.992 17.9246Z" fill="#0F161E"/>
<g clip-path="url(#clip0_34_337)">
<path d="M520 6.52862C518.823 7.05128 517.557 7.40328 516.229 7.56195C517.585 6.74995 518.627 5.46328 519.116 3.92995C517.848 4.68195 516.443 5.22862 514.947 5.52328C513.751 4.24728 512.043 3.44995 510.155 3.44995C505.916 3.44995 502.801 7.40462 503.759 11.51C498.304 11.2366 493.467 8.62328 490.228 4.65128C488.508 7.60195 489.336 11.462 492.259 13.4166C491.184 13.3819 490.171 13.0873 489.287 12.5953C489.215 15.6366 491.395 18.4819 494.552 19.1153C493.628 19.3659 492.616 19.4246 491.587 19.2273C492.421 21.8353 494.845 23.7326 497.72 23.7859C494.96 25.9499 491.483 26.9166 488 26.506C490.905 28.3686 494.357 29.4553 498.064 29.4553C510.253 29.4553 517.14 19.1606 516.724 9.92728C518.007 9.00062 519.12 7.84462 520 6.52862Z" fill="#0F161E"/>
</g>
<g clip-path="url(#clip1_34_337)">
<path d="M568 16.4527C568 9.34366 578.667 9.34366 578.667 16.4527C578.667 23.5617 568 23.5617 568 16.4527ZM557.333 27.1197C557.333 24.1717 559.718 21.7867 562.666 21.7867H567.999V27.1197C567.999 34.2287 557.332 34.2287 557.332 27.1197H557.333ZM568 0.45266V11.1197H573.333C580.442 11.1197 580.442 0.45266 573.333 0.45266H568ZM557.333 5.78566C557.333 8.73366 559.718 11.1187 562.666 11.1187H567.999V0.45166H562.666C559.718 0.45166 557.333 2.83666 557.333 5.78466V5.78566ZM557.333 16.4527C557.333 19.4007 559.718 21.7857 562.666 21.7857H567.999V11.1187H562.666C559.718 11.1187 557.333 13.5037 557.333 16.4517V16.4527Z" fill="#0F161E"/>
</g>
<g clip-path="url(#clip2_34_337)">
<path fill-rule="evenodd" clip-rule="evenodd" d="M365.997 70.1475C366.987 70.9519 367.358 70.8906 369.218 70.7665L386.747 69.7139C387.119 69.7139 386.809 69.3431 386.685 69.2814L383.774 67.1768C383.216 66.7437 382.473 66.2478 381.049 66.3718L364.075 67.6098C363.456 67.6712 363.333 67.9807 363.579 68.2288L365.997 70.1475ZM367.049 74.2327V92.6765C367.049 93.6678 367.544 94.0386 368.659 93.9773L387.924 92.8625C389.039 92.8012 389.164 92.1194 389.164 91.3142V72.9941C389.164 72.1902 388.854 71.7567 388.171 71.8186L368.04 72.9941C367.297 73.0566 367.049 73.4282 367.049 74.2327H367.049ZM386.067 75.222C386.191 75.7796 386.067 76.3367 385.508 76.3994L384.58 76.5843V90.2008C383.774 90.6339 383.031 90.8816 382.412 90.8816C381.42 90.8816 381.172 90.5718 380.429 89.644L374.358 80.1124V89.3345L376.279 89.768C376.279 89.768 376.279 90.8816 374.729 90.8816L370.456 91.1294C370.332 90.8816 370.456 90.2631 370.889 90.1393L372.004 89.8302V77.6368L370.456 77.5128C370.332 76.9552 370.641 76.1512 371.509 76.0888L376.093 75.7798L382.412 85.4355V76.8938L380.801 76.7089C380.677 76.0273 381.172 75.5323 381.792 75.4709L386.067 75.222ZM362.65 65.9388L380.305 64.6386C382.473 64.4527 383.031 64.5773 384.394 65.5671L390.03 69.5283C390.96 70.2094 391.27 70.3949 391.27 71.1374V92.8625C391.27 94.2241 390.774 95.0293 389.04 95.1525L368.536 96.3906C367.235 96.4527 366.615 96.2672 365.933 95.4002L361.783 90.0154C361.04 89.0241 360.73 88.2826 360.73 87.4151V68.1043C360.73 66.9909 361.226 66.0621 362.65 65.9388Z" fill="#0F161E"/>
</g>
<path fill-rule="evenodd" clip-rule="evenodd" d="M452.52 69.9379C453.891 70.3068 454.972 71.3873 455.341 72.7576C456.026 75.2612 456 80.479 456 80.479C456 80.479 456 85.6706 455.341 88.1741C454.972 89.5445 453.891 90.6249 452.52 90.9939C450.016 91.6527 440 91.6527 440 91.6527C440 91.6527 430.01 91.6527 427.479 90.9675C426.109 90.5986 425.028 89.5181 424.659 88.1477C424 85.6706 424 80.4527 424 80.4527C424 80.4527 424 75.2612 424.659 72.7576C425.028 71.3873 426.135 70.2805 427.479 69.9115C429.984 69.2527 440 69.2527 440 69.2527C440 69.2527 450.016 69.2527 452.52 69.9379ZM436.81 75.6564L445.14 80.4527L436.81 85.2489V75.6564Z" fill="#0F161E"/>
<path d="M506.05 80.4928C506.05 85.4854 502.009 89.5326 497.025 89.5326C492.041 89.5326 488 85.4845 488 80.4928C488 75.5011 492.041 71.4526 497.025 71.4526C502.01 71.4526 506.05 75.5002 506.05 80.4928ZM515.95 80.4928C515.95 85.1922 513.93 89.0034 511.438 89.0034C508.946 89.0034 506.925 85.1922 506.925 80.4928C506.925 75.7933 508.945 71.9822 511.438 71.9822C513.93 71.9822 515.95 75.7921 515.95 80.4928H515.95ZM520 80.4928C520 84.7023 519.29 88.1169 518.413 88.1169C517.536 88.1169 516.826 84.7032 516.826 80.4928C516.826 76.2823 517.537 72.8686 518.413 72.8686C519.289 72.8686 520 76.282 520 80.4928Z" fill="black"/>
<path fill-rule="evenodd" clip-rule="evenodd" d="M563.804 95.7819C565.456 96.2313 567.195 96.4711 568.989 96.4711C570.801 96.4711 572.556 96.2265 574.222 95.7686C574.203 95.6831 574.194 95.5965 574.194 95.5124C574.194 95.2773 574.197 94.8704 574.201 94.3287C574.208 93.2503 574.22 91.6378 574.22 89.783C574.22 87.8298 573.569 86.5798 572.815 85.9287C577.447 85.4079 582.313 83.637 582.313 75.6419C582.313 73.3501 581.506 71.5011 580.179 70.0427C580.387 69.5219 581.116 67.3864 579.971 64.5217C579.971 64.5217 578.227 63.9488 574.246 66.6572C572.58 66.1884 570.811 65.9541 569.041 65.9541C567.272 65.9541 565.502 66.1884 563.836 66.6572C559.855 63.9748 558.111 64.5217 558.111 64.5217C556.966 67.3864 557.695 69.5219 557.903 70.0427C556.576 71.5011 555.769 73.3762 555.769 75.6419C555.769 83.6109 560.609 85.4079 565.242 85.9287C564.643 86.4496 564.097 87.361 563.914 88.7153C562.717 89.2622 559.725 90.1476 557.851 86.9965C557.461 86.3714 556.29 84.8349 554.65 84.861C552.906 84.887 553.947 85.8506 554.676 86.2412C555.561 86.736 556.576 88.5851 556.81 89.184C557.226 90.3559 558.58 92.5956 563.81 91.632C563.81 92.7706 563.821 93.8648 563.829 94.6252C563.833 95.0301 563.836 95.3404 563.836 95.5124C563.836 95.6014 563.826 95.6925 563.804 95.7819Z" fill="#0F161E"/>
</g>
<defs>
<clipPath id="clip0_34_337">
<rect width="32" height="32" fill="white" transform="translate(488 0.452637)"/>
</clipPath>
<clipPath id="clip1_34_337">
<rect width="32" height="32" fill="white" transform="translate(552 0.452637)"/>
</clipPath>
<clipPath id="clip2_34_337">
<rect width="32" height="32" fill="white" transform="translate(360 64.4526)"/>
</clipPath>
</defs>
</svg>
