<svg width="32" height="33" viewBox="0 0 32 33" fill="none" xmlns="http://www.w3.org/2000/svg">
<path d="M8.82578 6.02354C8.02202 6.19608 7.32694 6.58081 6.7253 7.1773C6.28163 7.6259 5.99056 8.05993 5.78845 8.5874C5.48774 9.36651 5.4976 9.00171 5.4976 16.452C5.4976 23.9022 5.48774 23.5374 5.78845 24.3165C6.28635 25.6132 7.54384 26.6438 8.92437 26.9001C9.32861 26.9741 22.6711 26.9741 23.0754 26.9001C23.8495 26.7571 24.7566 26.274 25.304 25.7118C25.8563 25.1398 26.2704 24.3708 26.4331 23.6015C26.4873 23.3452 26.5021 22.5069 26.5021 19.3463V16.8987H25.4667H24.4312V19.0998C24.4312 21.2348 24.4115 22.9114 24.3819 23.079C24.234 23.9813 23.5289 24.6863 22.6265 24.8341C22.2371 24.8982 9.76242 24.8982 9.37276 24.8341C8.4852 24.6912 7.78497 24.0057 7.61736 23.1133C7.55327 22.7632 7.54835 10.2294 7.61736 9.82518C7.76525 8.92284 8.47041 8.21768 9.37276 8.06979C9.54037 8.04021 11.2169 8.02049 13.3519 8.02049H15.3903V6.98504V5.9496L13.0805 5.95452C10.0143 5.95452 9.05276 5.97425 8.82578 6.02354Z" fill="#0F161E"/>
<path d="M19.156 6.98506V8.02051H21.0395H22.928L20.2259 10.7226L17.5289 13.4196L18.2588 14.1494C18.6581 14.5487 19.0083 14.8743 19.0329 14.8743C19.0625 14.8743 20.2853 13.6712 21.7548 12.2017L24.4322 9.52449V11.413V13.2966H25.4677H26.5027V9.6233V5.95004H22.8294H19.156V6.98506Z" fill="#0F161E"/>
</svg>
